Hanif_Medium_5_0_grf.mot
version=1
nRows=58
nColumns=19
inDegrees=yes
endheader
time	right_ground_force_vx	right_ground_force_vy	right_ground_force_vz	right_ground_force_px	right_ground_force_py	right_ground_force_pz	right_ground_torque_x	right_ground_torque_y	right_ground_torque_z	left_ground_force_vx	left_ground_force_vy	left_ground_force_vz	left_ground_force_px	left_ground_force_py	left_ground_force_pz	left_ground_torque_x	left_ground_torque_y	left_ground_torque_z
1.925000	-0.563178	341.015000	45.372800	0.228165	0.000000	-1.418610	-29.807700	2.226660	10.077400	0.571813	321.842000	-48.163800	0.243687	0.000000	-0.987299	27.117500	-5.472860	15.186900
1.930000	-0.338286	338.520000	45.884100	0.228221	0.000000	-1.418980	-29.462800	2.240870	10.036700	0.569948	319.501000	-47.561000	0.242793	0.000000	-0.986605	26.698800	-5.381620	14.769300
1.935000	-0.450817	335.596000	45.406400	0.227833	0.000000	-1.418660	-29.314200	2.103860	9.801700	0.073635	316.625000	-47.707800	0.243206	0.000000	-0.986580	26.461700	-5.467500	14.813500
1.940000	-0.055467	334.077000	45.657500	0.228415	0.000000	-1.418830	-29.123100	2.064670	9.952930	0.353208	311.207000	-46.981000	0.243617	0.000000	-0.987614	26.324200	-5.164400	14.658300
1.945000	-0.790423	330.785000	45.223200	0.229051	0.000000	-1.418500	-28.950900	1.882680	10.056200	0.529578	307.876000	-46.549200	0.243975	0.000000	-0.986739	25.768900	-5.182710	14.625200
1.950000	-1.210410	325.568000	45.014600	0.229499	0.000000	-1.417320	-28.884500	1.902420	10.065500	0.781522	304.090000	-46.370100	0.243409	0.000000	-0.986983	25.520100	-5.141500	14.281100
1.955000	-1.650530	322.221000	44.842300	0.230292	0.000000	-1.417220	-28.621900	1.710410	10.208200	0.126946	298.264000	-45.619800	0.244171	0.000000	-0.988288	25.435400	-5.056210	14.254600
1.960000	-2.456300	319.660000	44.415600	0.231473	0.000000	-1.417040	-28.460600	1.500640	10.493600	0.200646	295.719000	-45.259800	0.244586	0.000000	-0.987793	25.070200	-4.936210	14.246600
1.965000	-3.062320	315.959000	43.799200	0.232819	0.000000	-1.416380	-28.345000	1.358860	10.795300	-0.545187	291.414000	-44.499000	0.245452	0.000000	-0.989328	25.170200	-4.817480	14.296900
1.970000	-3.962150	312.640000	43.538600	0.234692	0.000000	-1.416270	-28.091000	1.183650	11.270700	-0.766543	289.412000	-43.952000	0.245279	0.000000	-0.987798	24.559400	-4.733620	14.135400
1.975000	-4.510410	310.440000	43.200600	0.234569	0.000000	-1.417220	-27.603100	0.989292	11.132800	-0.717631	283.695000	-43.391100	0.245923	0.000000	-0.988897	24.385700	-4.695380	14.060600
1.980000	-5.218770	307.041000	43.114000	0.235997	0.000000	-1.415900	-27.713400	0.799973	11.448900	-0.990791	280.359000	-42.763500	0.246922	0.000000	-0.987889	23.822600	-4.509940	14.161700
1.985000	-5.344220	305.599000	42.663400	0.237070	0.000000	-1.414480	-28.017300	0.770616	11.725100	-1.179030	275.954000	-42.115100	0.246671	0.000000	-0.988451	23.608400	-4.470060	13.876600
1.990000	-5.932700	300.825000	42.521200	0.237401	0.000000	-1.412510	-28.176700	0.564558	11.634000	-1.767940	270.810000	-41.825000	0.247048	0.000000	-0.988818	23.282400	-4.310710	13.734200
1.995000	-5.503680	300.091000	42.254400	0.237862	0.000000	-1.413460	-27.818900	0.473288	11.725800	-1.561470	264.967000	-41.045500	0.247674	0.000000	-0.988418	22.670700	-4.289800	13.620300
2.000000	-5.661230	296.441000	41.829900	0.238320	0.000000	-1.414930	-27.044300	0.405781	11.715700	-1.494760	260.418000	-40.918000	0.247457	0.000000	-0.989088	22.454500	-4.146420	13.335400
2.005000	-5.646560	294.721000	41.799900	0.240162	0.000000	-1.413940	-27.180000	0.298992	12.190900	-1.874900	253.642000	-40.373900	0.248591	0.000000	-0.989105	21.885800	-4.096400	13.314800
2.010000	-5.966550	289.361000	41.640700	0.239939	0.000000	-1.412480	-27.110900	0.222071	11.908300	-1.431930	250.986000	-39.332900	0.247664	0.000000	-0.990179	21.915200	-4.074020	12.914800
2.015000	-6.672550	288.139000	41.848700	0.240560	0.000000	-1.413320	-26.760900	0.081704	12.035200	-1.444010	245.928000	-39.652200	0.248754	0.000000	-0.989338	21.267600	-3.850930	12.942600
2.020000	-6.673000	285.585000	41.669000	0.241624	0.000000	-1.413360	-26.512200	-0.029161	12.226100	-2.148110	243.324000	-38.706600	0.249089	0.000000	-0.989072	20.995500	-3.811910	12.882600
2.025000	-6.960370	280.452000	41.926200	0.242761	0.000000	-1.413540	-25.988500	-0.136786	12.336300	-2.263530	239.685000	-38.892400	0.249960	0.000000	-0.988961	20.657700	-3.600980	12.905800
2.030000	-7.771860	278.900000	41.763400	0.243355	0.000000	-1.412740	-26.072300	-0.309153	12.425000	-2.883240	236.406000	-38.549000	0.249879	0.000000	-0.988852	20.364100	-3.417170	12.702800
2.035000	-7.814210	277.026000	41.298600	0.244436	0.000000	-1.411640	-26.198400	-0.477699	12.622200	-3.564970	232.985000	-38.526800	0.251811	0.000000	-0.990449	20.458200	-3.175790	12.978000
2.040000	-8.367560	274.835000	42.015400	0.245814	0.000000	-1.411630	-26.001400	-0.551189	12.922100	-4.028620	230.938000	-38.563900	0.251548	0.000000	-0.990137	20.217600	-3.077920	12.808900
2.045000	-8.581510	273.084000	42.428200	0.246574	0.000000	-1.409940	-26.298300	-0.705217	13.044100	-4.825310	230.545000	-38.279600	0.252202	0.000000	-0.990494	20.283400	-2.932990	12.923800
2.050000	-8.860770	272.921000	42.130000	0.247477	0.000000	-1.410980	-25.998600	-0.839452	13.266700	-5.287810	227.586000	-38.534600	0.253061	0.000000	-0.992002	20.379000	-2.792860	12.974700
2.055000	-9.178080	270.809000	42.203900	0.247642	0.000000	-1.410470	-25.938400	-0.888238	13.213400	-4.941160	227.553000	-38.306400	0.252532	0.000000	-0.989520	19.802300	-2.830070	12.841000
2.060000	-8.199410	270.852000	42.202200	0.248176	0.000000	-1.409610	-26.161900	-0.990496	13.334100	-4.276380	226.769000	-39.252200	0.252844	0.000000	-0.990261	19.883800	-2.627860	12.861800
2.065000	-8.045810	268.286000	42.947200	0.247866	0.000000	-1.408910	-26.101500	-1.010870	13.134000	-4.860380	225.008000	-39.034400	0.253735	0.000000	-0.991058	19.921300	-2.458490	12.955500
2.070000	-7.396450	268.189000	43.368600	0.248672	0.000000	-1.409850	-25.838400	-0.963714	13.353800	-4.446910	224.621000	-39.713000	0.253451	0.000000	-0.990486	19.746900	-2.323750	12.861300
2.075000	-6.646980	267.566000	43.367000	0.248860	0.000000	-1.409240	-25.930800	-1.088590	13.344600	-4.390720	223.186000	-39.830900	0.253557	0.000000	-0.991513	19.850700	-2.350570	12.822900
2.080000	-6.100730	265.715000	44.057100	0.249861	0.000000	-1.409790	-25.603500	-1.040050	13.538100	-3.976650	221.221000	-39.933100	0.254112	0.000000	-0.991429	19.649300	-2.326790	12.844100
2.085000	-5.619860	263.642000	44.302900	0.249171	0.000000	-1.409490	-25.475500	-1.210750	13.217200	-3.439450	219.707000	-40.303100	0.254442	0.000000	-0.991886	19.602700	-2.218150	12.826800
2.090000	-5.427230	261.607000	44.340500	0.251201	0.000000	-1.408910	-25.431000	-1.265270	13.654200	-2.956830	217.812000	-39.781600	0.255271	0.000000	-0.991306	19.296800	-2.152090	12.881100
2.095000	-5.438110	264.720000	44.836500	0.250411	0.000000	-1.409220	-25.646900	-1.390550	13.581200	-3.405340	215.984000	-39.662600	0.255876	0.000000	-0.993074	19.526400	-2.042390	12.906600
2.100000	-6.111520	263.318000	45.147700	0.252655	0.000000	-1.408690	-25.654400	-1.602260	14.099800	-3.139590	215.644000	-39.563300	0.257792	0.000000	-0.992187	19.298600	-1.970890	13.294900
2.105000	-6.040270	262.344000	44.771200	0.252704	0.000000	-1.407590	-25.845700	-1.723230	14.036500	-3.564520	213.569000	-39.143600	0.257257	0.000000	-0.992927	19.277600	-1.749110	13.018500
2.110000	-5.163400	262.301000	45.296100	0.253966	0.000000	-1.406590	-26.099800	-1.712670	14.370300	-3.840640	211.887000	-39.555200	0.258083	0.000000	-0.993446	19.243300	-1.706610	13.119500
2.115000	-5.373810	261.597000	45.986700	0.253804	0.000000	-1.407010	-25.920500	-1.758080	14.294400	-3.352810	213.189000	-40.433800	0.257585	0.000000	-0.994060	19.477800	-1.497870	13.060000
2.120000	-4.651660	261.801000	46.105300	0.253316	0.000000	-1.408670	-25.501900	-1.795500	14.154700	-3.446250	213.805000	-40.738000	0.257366	0.000000	-0.992625	19.229200	-1.511770	13.057200
2.125000	-4.654720	261.850000	46.896400	0.253388	0.000000	-1.407970	-25.688000	-1.974180	14.156300	-3.008840	214.805000	-41.800900	0.257040	0.000000	-0.992912	19.370200	-1.389160	13.039400
2.130000	-3.912460	261.461000	47.332100	0.252686	0.000000	-1.407840	-25.678500	-1.938280	13.945600	-2.829470	213.165000	-41.775300	0.256035	0.000000	-0.991991	19.021500	-1.304770	12.708400
2.135000	-3.673110	257.946000	47.785100	0.252015	0.000000	-1.407780	-25.345700	-2.041760	13.566000	-2.300360	214.786000	-42.433300	0.255261	0.000000	-0.991141	18.972000	-1.239040	12.617400
2.140000	-3.141520	258.323000	48.230700	0.251373	0.000000	-1.408940	-25.083200	-1.942470	13.427800	-1.973460	211.014000	-42.905300	0.256323	0.000000	-0.993551	19.143900	-1.294160	12.675800
2.145000	-2.493110	258.166000	48.308500	0.252234	0.000000	-1.408670	-25.134600	-1.998740	13.628600	-1.068830	208.706000	-43.254900	0.257257	0.000000	-0.993583	18.924100	-1.116770	12.714600
2.150000	-2.543200	257.780000	48.331700	0.251573	0.000000	-1.408710	-25.087400	-2.031890	13.427200	-0.594221	206.608000	-43.092100	0.256609	0.000000	-0.992443	18.490400	-1.241890	12.474800
2.155000	-2.795520	254.939000	48.127100	0.252048	0.000000	-1.408260	-24.925200	-2.171970	13.383600	-0.712269	207.520000	-43.310600	0.256716	0.000000	-0.991660	18.410700	-0.981000	12.500300
2.160000	-3.361140	253.645000	48.332000	0.253064	0.000000	-1.407810	-24.915600	-2.177730	13.596000	-0.774664	204.973000	-43.117900	0.257890	0.000000	-0.992890	18.438100	-0.897125	12.594300
2.165000	-3.904530	255.042000	47.807600	0.253570	0.000000	-1.409410	-24.644600	-2.344080	13.773900	-0.732089	204.232000	-43.328100	0.257312	0.000000	-0.992711	18.334300	-0.907649	12.438200
2.170000	-4.103500	253.587000	47.911900	0.253617	0.000000	-1.407310	-25.036100	-2.379030	13.708900	-0.873145	202.825000	-43.437300	0.258734	0.000000	-0.993323	18.334500	-0.799038	12.647100
2.175000	-4.690040	252.762000	47.479300	0.254499	0.000000	-1.407270	-24.964900	-2.506380	13.877600	-1.926510	202.142000	-43.587500	0.259296	0.000000	-0.992744	18.173600	-0.657577	12.722500
2.180000	-4.785550	248.136000	47.730600	0.255897	0.000000	-1.407300	-24.503500	-2.559050	13.981800	-2.217300	201.311000	-43.491500	0.260220	0.000000	-0.993913	18.337900	-0.468349	12.833500
2.185000	-5.651430	247.745000	47.398100	0.255713	0.000000	-1.407650	-24.377700	-2.653800	13.906500	-2.607120	201.190000	-43.366900	0.259773	0.000000	-0.992575	18.063600	-0.414327	12.724200
2.190000	-5.461180	244.884000	47.943900	0.257105	0.000000	-1.406070	-24.482700	-2.778300	14.083000	-3.296630	201.247000	-43.856400	0.260482	0.000000	-0.993484	18.262600	-0.289890	12.878100
2.195000	-6.241400	244.187000	48.465000	0.256505	0.000000	-1.406510	-24.306700	-2.909360	13.887200	-3.570060	201.680000	-43.688300	0.260173	0.000000	-0.992616	18.129500	-0.200428	12.817900
2.200000	-6.129660	244.241000	48.320600	0.256863	0.000000	-1.408370	-23.855800	-2.968540	13.962900	-3.845650	198.880000	-43.795400	0.260149	0.000000	-0.993195	17.997500	-0.097763	12.640500
2.205000	-6.066250	242.723000	49.114400	0.256952	0.000000	-1.409200	-23.505100	-3.048540	13.891600	-3.925920	196.352000	-43.523900	0.261196	0.000000	-0.994106	17.953300	-0.199891	12.729900
2.210000	-6.455030	239.381000	49.761100	0.256149	0.000000	-1.407770	-23.525200	-3.037540	13.522300	-3.858290	194.391000	-43.404300	0.261053	0.000000	-0.992732	17.501000	0.081994	12.518900
